<mxfile host="app.diagrams.net" agent="Mozilla/5.0 (Windows NT 10.0; Win64; x64) AppleWebKit/537.36 (KHTML, like Gecko) Chrome/130.0.0.0 Safari/537.36" version="24.8.3">
  <diagram name="Page-1" id="ADdnZNFPhiC1YL75WqlX">
    <mxGraphModel dx="1900" dy="1657" grid="1" gridSize="10" guides="1" tooltips="1" connect="1" arrows="1" fold="1" page="1" pageScale="1" pageWidth="850" pageHeight="1100" math="0" shadow="0">
      <root>
        <mxCell id="0" />
        <mxCell id="1" parent="0" />
        <mxCell id="OmisBVA3CvusH26m7YQ3-10" value="" style="rounded=0;whiteSpace=wrap;html=1;" parent="1" vertex="1">
          <mxGeometry x="-10" y="870" width="1240" height="980" as="geometry" />
        </mxCell>
        <mxCell id="OmisBVA3CvusH26m7YQ3-6" value="" style="rounded=0;whiteSpace=wrap;html=1;" parent="1" vertex="1">
          <mxGeometry x="-10" y="-50" width="1240" height="910" as="geometry" />
        </mxCell>
        <mxCell id="UUXd9PpIRvEqFofyWrx6-1" style="edgeStyle=orthogonalEdgeStyle;rounded=0;orthogonalLoop=1;jettySize=auto;html=1;curved=0;" parent="1" source="UUXd9PpIRvEqFofyWrx6-2" target="UUXd9PpIRvEqFofyWrx6-4" edge="1">
          <mxGeometry relative="1" as="geometry">
            <Array as="points">
              <mxPoint x="600" y="260" />
              <mxPoint x="600" y="260" />
            </Array>
          </mxGeometry>
        </mxCell>
        <mxCell id="UUXd9PpIRvEqFofyWrx6-2" value="Frontend" style="shape=umlLifeline;perimeter=lifelinePerimeter;whiteSpace=wrap;html=1;container=1;dropTarget=0;collapsible=0;recursiveResize=0;outlineConnect=0;portConstraint=eastwest;newEdgeStyle={&quot;curved&quot;:0,&quot;rounded&quot;:0};" parent="1" vertex="1">
          <mxGeometry x="370" y="40" width="100" height="1770" as="geometry" />
        </mxCell>
        <mxCell id="UUXd9PpIRvEqFofyWrx6-3" style="edgeStyle=orthogonalEdgeStyle;rounded=0;orthogonalLoop=1;jettySize=auto;html=1;curved=0;" parent="1" source="UUXd9PpIRvEqFofyWrx6-4" target="UUXd9PpIRvEqFofyWrx6-5" edge="1">
          <mxGeometry relative="1" as="geometry">
            <Array as="points">
              <mxPoint x="731" y="400" />
              <mxPoint x="731" y="400" />
            </Array>
          </mxGeometry>
        </mxCell>
        <mxCell id="UUXd9PpIRvEqFofyWrx6-4" value="Backend" style="shape=umlLifeline;perimeter=lifelinePerimeter;whiteSpace=wrap;html=1;container=1;dropTarget=0;collapsible=0;recursiveResize=0;outlineConnect=0;portConstraint=eastwest;newEdgeStyle={&quot;curved&quot;:0,&quot;rounded&quot;:0};" parent="1" vertex="1">
          <mxGeometry x="611" y="40" width="100" height="1770" as="geometry" />
        </mxCell>
        <mxCell id="UUXd9PpIRvEqFofyWrx6-5" value="Database" style="shape=umlLifeline;perimeter=lifelinePerimeter;whiteSpace=wrap;html=1;container=1;dropTarget=0;collapsible=0;recursiveResize=0;outlineConnect=0;portConstraint=eastwest;newEdgeStyle={&quot;curved&quot;:0,&quot;rounded&quot;:0};" parent="1" vertex="1">
          <mxGeometry x="821" y="40" width="100" height="1770" as="geometry" />
        </mxCell>
        <mxCell id="UUXd9PpIRvEqFofyWrx6-6" value="User" style="shape=umlActor;verticalLabelPosition=bottom;verticalAlign=top;html=1;" parent="1" vertex="1">
          <mxGeometry x="120" y="104" width="30" height="60" as="geometry" />
        </mxCell>
        <mxCell id="UUXd9PpIRvEqFofyWrx6-7" style="rounded=0;orthogonalLoop=1;jettySize=auto;html=1;" parent="1" source="UUXd9PpIRvEqFofyWrx6-8" target="UUXd9PpIRvEqFofyWrx6-2" edge="1">
          <mxGeometry relative="1" as="geometry" />
        </mxCell>
        <mxCell id="UUXd9PpIRvEqFofyWrx6-8" value="Email" style="html=1;whiteSpace=wrap;" parent="1" vertex="1">
          <mxGeometry x="210" y="104" width="110" height="50" as="geometry" />
        </mxCell>
        <mxCell id="UUXd9PpIRvEqFofyWrx6-9" value="Email" style="html=1;whiteSpace=wrap;" parent="1" vertex="1">
          <mxGeometry x="490" y="200" width="110" height="50" as="geometry" />
        </mxCell>
        <mxCell id="UUXd9PpIRvEqFofyWrx6-14" value="Verify user and update temp password" style="html=1;whiteSpace=wrap;" parent="1" vertex="1">
          <mxGeometry x="721" y="300" width="110" height="90" as="geometry" />
        </mxCell>
        <mxCell id="UUXd9PpIRvEqFofyWrx6-16" style="edgeStyle=orthogonalEdgeStyle;rounded=0;orthogonalLoop=1;jettySize=auto;html=1;curved=0;" parent="1" edge="1">
          <mxGeometry relative="1" as="geometry">
            <mxPoint x="870.5" y="452" as="sourcePoint" />
            <mxPoint x="656" y="452" as="targetPoint" />
            <Array as="points">
              <mxPoint x="739" y="452" />
              <mxPoint x="739" y="453" />
            </Array>
          </mxGeometry>
        </mxCell>
        <mxCell id="UUXd9PpIRvEqFofyWrx6-17" value="User Details" style="html=1;whiteSpace=wrap;" parent="1" vertex="1">
          <mxGeometry x="721" y="424" width="110" height="20" as="geometry" />
        </mxCell>
        <mxCell id="UUXd9PpIRvEqFofyWrx6-18" style="edgeStyle=orthogonalEdgeStyle;rounded=0;orthogonalLoop=1;jettySize=auto;html=1;curved=0;" parent="1" edge="1">
          <mxGeometry relative="1" as="geometry">
            <mxPoint x="661.5" y="299" as="sourcePoint" />
            <mxPoint x="661.5" y="319" as="targetPoint" />
            <Array as="points">
              <mxPoint x="622" y="289" />
            </Array>
          </mxGeometry>
        </mxCell>
        <mxCell id="UUXd9PpIRvEqFofyWrx6-19" value="Generate Temp Password" style="html=1;whiteSpace=wrap;" parent="1" vertex="1">
          <mxGeometry x="500" y="281" width="110" height="50" as="geometry" />
        </mxCell>
        <mxCell id="UUXd9PpIRvEqFofyWrx6-26" value="AWS SES" style="shape=umlLifeline;perimeter=lifelinePerimeter;whiteSpace=wrap;html=1;container=1;dropTarget=0;collapsible=0;recursiveResize=0;outlineConnect=0;portConstraint=eastwest;newEdgeStyle={&quot;curved&quot;:0,&quot;rounded&quot;:0};" parent="1" vertex="1">
          <mxGeometry x="1070" y="40" width="100" height="1770" as="geometry" />
        </mxCell>
        <mxCell id="UUXd9PpIRvEqFofyWrx6-27" style="edgeStyle=orthogonalEdgeStyle;rounded=0;orthogonalLoop=1;jettySize=auto;html=1;curved=0;entryX=0.512;entryY=0.765;entryDx=0;entryDy=0;entryPerimeter=0;" parent="1" edge="1">
          <mxGeometry relative="1" as="geometry">
            <Array as="points" />
            <mxPoint x="660" y="562" as="sourcePoint" />
            <mxPoint x="1121.1999999999998" y="562.1500000000001" as="targetPoint" />
          </mxGeometry>
        </mxCell>
        <mxCell id="UUXd9PpIRvEqFofyWrx6-28" value="Temp Password" style="html=1;whiteSpace=wrap;" parent="1" vertex="1">
          <mxGeometry x="670" y="512" width="130" height="40" as="geometry" />
        </mxCell>
        <mxCell id="UUXd9PpIRvEqFofyWrx6-29" style="edgeStyle=orthogonalEdgeStyle;rounded=0;orthogonalLoop=1;jettySize=auto;html=1;curved=0;" parent="1" source="UUXd9PpIRvEqFofyWrx6-26" target="UUXd9PpIRvEqFofyWrx6-6" edge="1">
          <mxGeometry relative="1" as="geometry">
            <mxPoint x="1124.5" y="630" as="sourcePoint" />
            <mxPoint x="130" y="300" as="targetPoint" />
            <Array as="points">
              <mxPoint x="993" y="630" />
              <mxPoint x="130" y="631" />
            </Array>
          </mxGeometry>
        </mxCell>
        <mxCell id="UUXd9PpIRvEqFofyWrx6-30" value="Send temp password to the user via email" style="html=1;whiteSpace=wrap;" parent="1" vertex="1">
          <mxGeometry x="921" y="580" width="130" height="40" as="geometry" />
        </mxCell>
        <mxCell id="UUXd9PpIRvEqFofyWrx6-31" style="edgeStyle=orthogonalEdgeStyle;rounded=0;orthogonalLoop=1;jettySize=auto;html=1;curved=0;" parent="1" edge="1">
          <mxGeometry relative="1" as="geometry">
            <mxPoint x="661.5" y="362" as="sourcePoint" />
            <mxPoint x="661.5" y="382" as="targetPoint" />
            <Array as="points">
              <mxPoint x="622" y="352" />
            </Array>
          </mxGeometry>
        </mxCell>
        <mxCell id="UUXd9PpIRvEqFofyWrx6-32" value="Encrypt Temp Password" style="html=1;whiteSpace=wrap;" parent="1" vertex="1">
          <mxGeometry x="500" y="341" width="110" height="50" as="geometry" />
        </mxCell>
        <mxCell id="UUXd9PpIRvEqFofyWrx6-33" style="edgeStyle=orthogonalEdgeStyle;rounded=0;orthogonalLoop=1;jettySize=auto;html=1;curved=0;" parent="1" edge="1">
          <mxGeometry relative="1" as="geometry">
            <mxPoint x="419.5" y="748" as="sourcePoint" />
            <mxPoint x="419.5" y="768" as="targetPoint" />
            <Array as="points">
              <mxPoint x="380" y="738" />
            </Array>
          </mxGeometry>
        </mxCell>
        <mxCell id="UUXd9PpIRvEqFofyWrx6-34" value="Verify blocked status" style="html=1;whiteSpace=wrap;" parent="1" vertex="1">
          <mxGeometry x="490" y="461" width="110" height="50" as="geometry" />
        </mxCell>
        <mxCell id="UUXd9PpIRvEqFofyWrx6-35" style="edgeStyle=orthogonalEdgeStyle;rounded=0;orthogonalLoop=1;jettySize=auto;html=1;curved=0;entryX=0.5;entryY=0.313;entryDx=0;entryDy=0;entryPerimeter=0;" parent="1" edge="1">
          <mxGeometry relative="1" as="geometry">
            <mxPoint x="662.25" y="714.56" as="sourcePoint" />
            <mxPoint x="420" y="714.3799999999997" as="targetPoint" />
            <Array as="points" />
          </mxGeometry>
        </mxCell>
        <mxCell id="UUXd9PpIRvEqFofyWrx6-36" value="Status Response" style="html=1;whiteSpace=wrap;" parent="1" vertex="1">
          <mxGeometry x="490" y="690" width="110" height="50" as="geometry" />
        </mxCell>
        <mxCell id="UUXd9PpIRvEqFofyWrx6-37" value="Set page to reset password" style="html=1;whiteSpace=wrap;" parent="1" vertex="1">
          <mxGeometry x="250" y="726" width="110" height="50" as="geometry" />
        </mxCell>
        <mxCell id="UUXd9PpIRvEqFofyWrx6-39" value="Temp password,&lt;br&gt;New Password" style="html=1;whiteSpace=wrap;" parent="1" vertex="1">
          <mxGeometry x="140" y="940" width="110" height="50" as="geometry" />
        </mxCell>
        <mxCell id="UUXd9PpIRvEqFofyWrx6-42" style="edgeStyle=orthogonalEdgeStyle;rounded=0;orthogonalLoop=1;jettySize=auto;html=1;curved=0;" parent="1" edge="1">
          <mxGeometry relative="1" as="geometry">
            <mxPoint x="419.5" y="210" as="sourcePoint" />
            <mxPoint x="419.5" y="230" as="targetPoint" />
            <Array as="points">
              <mxPoint x="380" y="200" />
            </Array>
          </mxGeometry>
        </mxCell>
        <mxCell id="UUXd9PpIRvEqFofyWrx6-43" value="Validate email" style="html=1;whiteSpace=wrap;" parent="1" vertex="1">
          <mxGeometry x="260" y="189" width="110" height="50" as="geometry" />
        </mxCell>
        <mxCell id="UUXd9PpIRvEqFofyWrx6-46" value="Validate&amp;nbsp; New Password" style="html=1;whiteSpace=wrap;" parent="1" vertex="1">
          <mxGeometry x="250" y="1010" width="110" height="50" as="geometry" />
        </mxCell>
        <mxCell id="UUXd9PpIRvEqFofyWrx6-47" style="edgeStyle=orthogonalEdgeStyle;rounded=0;orthogonalLoop=1;jettySize=auto;html=1;curved=0;" parent="1" edge="1">
          <mxGeometry relative="1" as="geometry">
            <Array as="points">
              <mxPoint x="605" y="1170" />
              <mxPoint x="605" y="1170" />
            </Array>
            <mxPoint x="424" y="1170" as="sourcePoint" />
            <mxPoint x="666" y="1170" as="targetPoint" />
          </mxGeometry>
        </mxCell>
        <mxCell id="UUXd9PpIRvEqFofyWrx6-48" style="edgeStyle=orthogonalEdgeStyle;rounded=0;orthogonalLoop=1;jettySize=auto;html=1;curved=0;" parent="1" edge="1">
          <mxGeometry relative="1" as="geometry">
            <mxPoint x="419.5" y="1110" as="sourcePoint" />
            <mxPoint x="419.5" y="1130" as="targetPoint" />
            <Array as="points">
              <mxPoint x="380" y="1100" />
            </Array>
          </mxGeometry>
        </mxCell>
        <mxCell id="UUXd9PpIRvEqFofyWrx6-49" value="Generate encypted token&lt;br&gt;&lt;br&gt;{email, temp password, new password, expiry time}" style="html=1;whiteSpace=wrap;" parent="1" vertex="1">
          <mxGeometry x="140" y="1080" width="220" height="75" as="geometry" />
        </mxCell>
        <mxCell id="UUXd9PpIRvEqFofyWrx6-51" value="Encrypted token" style="html=1;whiteSpace=wrap;" parent="1" vertex="1">
          <mxGeometry x="490" y="1120" width="110" height="40" as="geometry" />
        </mxCell>
        <mxCell id="UUXd9PpIRvEqFofyWrx6-52" style="edgeStyle=orthogonalEdgeStyle;rounded=0;orthogonalLoop=1;jettySize=auto;html=1;curved=0;" parent="1" edge="1">
          <mxGeometry relative="1" as="geometry">
            <mxPoint x="659.5" y="1210" as="sourcePoint" />
            <mxPoint x="659.5" y="1230" as="targetPoint" />
            <Array as="points">
              <mxPoint x="620" y="1200" />
            </Array>
          </mxGeometry>
        </mxCell>
        <mxCell id="UUXd9PpIRvEqFofyWrx6-54" value="Decrypt token" style="html=1;whiteSpace=wrap;" parent="1" vertex="1">
          <mxGeometry x="490" y="1190" width="110" height="50" as="geometry" />
        </mxCell>
        <mxCell id="UUXd9PpIRvEqFofyWrx6-55" style="edgeStyle=orthogonalEdgeStyle;rounded=0;orthogonalLoop=1;jettySize=auto;html=1;curved=0;" parent="1" edge="1">
          <mxGeometry relative="1" as="geometry">
            <mxPoint x="659.5" y="1290" as="sourcePoint" />
            <mxPoint x="659.5" y="1310" as="targetPoint" />
            <Array as="points">
              <mxPoint x="620" y="1280" />
            </Array>
          </mxGeometry>
        </mxCell>
        <mxCell id="UUXd9PpIRvEqFofyWrx6-56" value="Verify expiry time stamp" style="html=1;whiteSpace=wrap;" parent="1" vertex="1">
          <mxGeometry x="490" y="1270" width="110" height="50" as="geometry" />
        </mxCell>
        <mxCell id="UUXd9PpIRvEqFofyWrx6-57" style="edgeStyle=orthogonalEdgeStyle;rounded=0;orthogonalLoop=1;jettySize=auto;html=1;curved=0;" parent="1" edge="1">
          <mxGeometry relative="1" as="geometry">
            <mxPoint x="659.5" y="480" as="sourcePoint" />
            <mxPoint x="659.5" y="500" as="targetPoint" />
            <Array as="points">
              <mxPoint x="620" y="470" />
            </Array>
          </mxGeometry>
        </mxCell>
        <mxCell id="UUXd9PpIRvEqFofyWrx6-58" style="edgeStyle=orthogonalEdgeStyle;rounded=0;orthogonalLoop=1;jettySize=auto;html=1;curved=0;" parent="1" edge="1">
          <mxGeometry relative="1" as="geometry">
            <mxPoint x="659.5" y="1390" as="sourcePoint" />
            <mxPoint x="659.5" y="1410" as="targetPoint" />
            <Array as="points">
              <mxPoint x="620" y="1380" />
            </Array>
          </mxGeometry>
        </mxCell>
        <mxCell id="UUXd9PpIRvEqFofyWrx6-59" value="Encrypt new password and temp password" style="html=1;whiteSpace=wrap;" parent="1" vertex="1">
          <mxGeometry x="490" y="1370" width="110" height="50" as="geometry" />
        </mxCell>
        <mxCell id="UUXd9PpIRvEqFofyWrx6-60" style="edgeStyle=orthogonalEdgeStyle;rounded=0;orthogonalLoop=1;jettySize=auto;html=1;curved=0;" parent="1" edge="1">
          <mxGeometry relative="1" as="geometry">
            <Array as="points">
              <mxPoint x="828" y="1510" />
              <mxPoint x="828" y="1510" />
            </Array>
            <mxPoint x="667" y="1510" as="sourcePoint" />
            <mxPoint x="867" y="1510" as="targetPoint" />
          </mxGeometry>
        </mxCell>
        <mxCell id="UUXd9PpIRvEqFofyWrx6-61" value="Verify temp password and the number of user attempts. &lt;br&gt;&lt;br&gt;If true, update user password &amp;amp; reset attempts to 0&lt;br&gt;&lt;br&gt;&amp;nbsp;else, if user not reached the max attempt already,&lt;br&gt;&amp;nbsp; increment user attempt by 1," style="html=1;whiteSpace=wrap;" parent="1" vertex="1">
          <mxGeometry x="711" y="1260" width="110" height="230" as="geometry" />
        </mxCell>
        <mxCell id="UUXd9PpIRvEqFofyWrx6-65" style="edgeStyle=orthogonalEdgeStyle;rounded=0;orthogonalLoop=1;jettySize=auto;html=1;curved=0;" parent="1" edge="1">
          <mxGeometry relative="1" as="geometry">
            <mxPoint x="873.25" y="1598" as="sourcePoint" />
            <mxPoint x="658.75" y="1598" as="targetPoint" />
            <Array as="points">
              <mxPoint x="741.75" y="1598" />
              <mxPoint x="741.75" y="1599" />
            </Array>
          </mxGeometry>
        </mxCell>
        <mxCell id="UUXd9PpIRvEqFofyWrx6-66" value="User Details" style="html=1;whiteSpace=wrap;" parent="1" vertex="1">
          <mxGeometry x="723.75" y="1570" width="110" height="20" as="geometry" />
        </mxCell>
        <mxCell id="UUXd9PpIRvEqFofyWrx6-69" style="edgeStyle=orthogonalEdgeStyle;rounded=0;orthogonalLoop=1;jettySize=auto;html=1;curved=0;entryX=0.5;entryY=0.313;entryDx=0;entryDy=0;entryPerimeter=0;" parent="1" edge="1">
          <mxGeometry relative="1" as="geometry">
            <mxPoint x="666.12" y="1654.38" as="sourcePoint" />
            <mxPoint x="423.87" y="1654.38" as="targetPoint" />
            <Array as="points" />
          </mxGeometry>
        </mxCell>
        <mxCell id="UUXd9PpIRvEqFofyWrx6-70" value="Send Status Response" style="html=1;whiteSpace=wrap;" parent="1" vertex="1">
          <mxGeometry x="490" y="1630" width="110" height="50" as="geometry" />
        </mxCell>
        <mxCell id="UUXd9PpIRvEqFofyWrx6-71" style="edgeStyle=orthogonalEdgeStyle;rounded=0;orthogonalLoop=1;jettySize=auto;html=1;curved=0;" parent="1" edge="1">
          <mxGeometry relative="1" as="geometry">
            <mxPoint x="419.5" y="1730" as="sourcePoint" />
            <mxPoint x="419.5" y="1750" as="targetPoint" />
            <Array as="points">
              <mxPoint x="380" y="1720" />
            </Array>
          </mxGeometry>
        </mxCell>
        <mxCell id="UUXd9PpIRvEqFofyWrx6-72" value="Redirect or display error accordingly" style="html=1;whiteSpace=wrap;" parent="1" vertex="1">
          <mxGeometry x="250" y="1713" width="110" height="50" as="geometry" />
        </mxCell>
        <mxCell id="UUXd9PpIRvEqFofyWrx6-73" value="* Resend temporary password functionality replicates forogt password functionailty&amp;nbsp;" style="html=1;whiteSpace=wrap;" parent="1" vertex="1">
          <mxGeometry x="431" y="810" width="739" height="41" as="geometry" />
        </mxCell>
        <mxCell id="UUXd9PpIRvEqFofyWrx6-74" value="Request to resend temp password, if not received" style="html=1;whiteSpace=wrap;" parent="1" vertex="1">
          <mxGeometry y="789" width="250" height="50" as="geometry" />
        </mxCell>
        <mxCell id="UUXd9PpIRvEqFofyWrx6-76" style="edgeStyle=orthogonalEdgeStyle;rounded=0;orthogonalLoop=1;jettySize=auto;html=1;curved=0;entryX=0.5;entryY=0.313;entryDx=0;entryDy=0;entryPerimeter=0;" parent="1" edge="1">
          <mxGeometry relative="1" as="geometry">
            <mxPoint x="1121" y="675.38" as="sourcePoint" />
            <mxPoint x="661" y="675.38" as="targetPoint" />
            <Array as="points" />
          </mxGeometry>
        </mxCell>
        <mxCell id="UUXd9PpIRvEqFofyWrx6-77" value="Status Response" style="html=1;whiteSpace=wrap;" parent="1" vertex="1">
          <mxGeometry x="816" y="651" width="110" height="50" as="geometry" />
        </mxCell>
        <mxCell id="OmisBVA3CvusH26m7YQ3-8" value="" style="endArrow=classic;html=1;rounded=0;" parent="1" edge="1">
          <mxGeometry width="50" height="50" relative="1" as="geometry">
            <mxPoint x="250" y="960" as="sourcePoint" />
            <mxPoint x="419.5" y="960" as="targetPoint" />
          </mxGeometry>
        </mxCell>
        <mxCell id="OmisBVA3CvusH26m7YQ3-9" value="" style="endArrow=classic;html=1;rounded=0;" parent="1" edge="1">
          <mxGeometry width="50" height="50" relative="1" as="geometry">
            <mxPoint x="250" y="813.29" as="sourcePoint" />
            <mxPoint x="419.5" y="813.29" as="targetPoint" />
          </mxGeometry>
        </mxCell>
        <mxCell id="OmisBVA3CvusH26m7YQ3-12" style="edgeStyle=orthogonalEdgeStyle;rounded=0;orthogonalLoop=1;jettySize=auto;html=1;curved=0;" parent="1" edge="1">
          <mxGeometry relative="1" as="geometry">
            <mxPoint x="419.5" y="1030" as="sourcePoint" />
            <mxPoint x="419.5" y="1050" as="targetPoint" />
            <Array as="points">
              <mxPoint x="380" y="1020" />
            </Array>
          </mxGeometry>
        </mxCell>
        <mxCell id="NcqOxkm6iDfhiTjoXCpv-1" value="" style="image;aspect=fixed;html=1;points=[];align=center;fontSize=12;image=img/lib/azure2/general/Browser.svg;" parent="1" vertex="1">
          <mxGeometry x="380" y="-20" width="65" height="52" as="geometry" />
        </mxCell>
        <mxCell id="NcqOxkm6iDfhiTjoXCpv-2" value="" style="image;aspect=fixed;perimeter=ellipsePerimeter;html=1;align=center;shadow=0;dashed=0;fontColor=#4277BB;labelBackgroundColor=default;fontSize=12;spacingTop=3;image=img/lib/ibm/infrastructure/mobile_backend.svg;" parent="1" vertex="1">
          <mxGeometry x="631" y="-20" width="56" height="56" as="geometry" />
        </mxCell>
        <mxCell id="NcqOxkm6iDfhiTjoXCpv-3" value="" style="sketch=0;points=[[0,0,0],[0.25,0,0],[0.5,0,0],[0.75,0,0],[1,0,0],[0,1,0],[0.25,1,0],[0.5,1,0],[0.75,1,0],[1,1,0],[0,0.25,0],[0,0.5,0],[0,0.75,0],[1,0.25,0],[1,0.5,0],[1,0.75,0]];outlineConnect=0;fontColor=#232F3E;fillColor=#C925D1;strokeColor=#ffffff;dashed=0;verticalLabelPosition=bottom;verticalAlign=top;align=center;html=1;fontSize=12;fontStyle=0;aspect=fixed;shape=mxgraph.aws4.resourceIcon;resIcon=mxgraph.aws4.documentdb_with_mongodb_compatibility;" parent="1" vertex="1">
          <mxGeometry x="842" y="-23" width="58" height="58" as="geometry" />
        </mxCell>
        <mxCell id="NcqOxkm6iDfhiTjoXCpv-4" value="" style="outlineConnect=0;dashed=0;verticalLabelPosition=bottom;verticalAlign=top;align=center;html=1;shape=mxgraph.aws3.ses;fillColor=#D9A741;gradientColor=none;" parent="1" vertex="1">
          <mxGeometry x="1070" y="-38" width="80" height="70" as="geometry" />
        </mxCell>
        <mxCell id="zypLQeYkLDAlVL65CZ4N-1" value="Endpoint 1" style="text;html=1;align=center;verticalAlign=middle;whiteSpace=wrap;rounded=0;" vertex="1" parent="1">
          <mxGeometry y="-38" width="60" height="30" as="geometry" />
        </mxCell>
        <mxCell id="zypLQeYkLDAlVL65CZ4N-2" value="Endpoint 2" style="text;html=1;align=center;verticalAlign=middle;whiteSpace=wrap;rounded=0;" vertex="1" parent="1">
          <mxGeometry y="880" width="60" height="30" as="geometry" />
        </mxCell>
      </root>
    </mxGraphModel>
  </diagram>
</mxfile>
